HIERARCHY
ROOT Hips
{
 OFFSET 0.000000 0.000000 0.000000
 CHANNELS 6 Xposition Yposition Zposition Yrotation Xrotation Zrotation
 JOINT Chest
 {
  OFFSET 0.000000 11.395451 -0.039534
  CHANNELS 3 Yrotation Xrotation Zrotation
  JOINT Chest2
  {
   OFFSET 0.000000 9.398669 0.071813
   CHANNELS 3 Yrotation Xrotation Zrotation
   JOINT Chest3
   {
    OFFSET 0.000000 8.489801 0.000000
    CHANNELS 3 Yrotation Xrotation Zrotation
    JOINT Chest4
    {
     OFFSET 0.000000 8.489801 0.000000
     CHANNELS 3 Yrotation Xrotation Zrotation
     JOINT Neck
     {
      OFFSET 0.000000 12.404889 0.000000
      CHANNELS 3 Yrotation Xrotation Zrotation
      JOINT Head
      {
       OFFSET 0.000000 8.903270 0.092239
       CHANNELS 3 Yrotation Xrotation Zrotation
       End Site
       {
        OFFSET 0.000000 17.592497 0.007158
       }
      }
     }
     JOINT RightCollar
     {
      OFFSET -3.196775 6.966722 0.000000
      CHANNELS 3 Yrotation Xrotation Zrotation
      JOINT RightShoulder
      {
       OFFSET -15.955896 0.000000 0.000000
       CHANNELS 3 Yrotation Xrotation Zrotation
       JOINT RightElbow
       {
        OFFSET -24.792472 0.000000 0.000000
        CHANNELS 3 Yrotation Xrotation Zrotation
        JOINT RightWrist
        {
         OFFSET -20.900115 0.000000 0.025002
         CHANNELS 3 Yrotation Xrotation Zrotation
         End Site
         {
          OFFSET -16.056692 0.000000 0.000000
         }
        }
       }
      }
     }
     JOINT LeftCollar
     {
      OFFSET 3.196775 6.966722 0.000000
      CHANNELS 3 Yrotation Xrotation Zrotation
      JOINT LeftShoulder
      {
       OFFSET 15.955896 0.000000 0.000000
       CHANNELS 3 Yrotation Xrotation Zrotation
       JOINT LeftElbow
       {
        OFFSET 24.792472 0.000000 0.000000
        CHANNELS 3 Yrotation Xrotation Zrotation
        JOINT LeftWrist
        {
         OFFSET 20.900115 0.000000 0.025002
         CHANNELS 3 Yrotation Xrotation Zrotation
         End Site
         {
          OFFSET 16.056692 0.000000 0.000000
         }
        }
       }
      }
     }
    }
   }
  }
 }
 JOINT RightHip
 {
  OFFSET -9.568995 0.193718 0.019767
  CHANNELS 3 Yrotation Xrotation Zrotation
  JOINT RightKnee
  {
   OFFSET 0.000000 -56.649296 0.015402
   CHANNELS 3 Yrotation Xrotation Zrotation
   JOINT RightAnkle
   {
    OFFSET 0.000000 -41.365147 0.021264
    CHANNELS 3 Yrotation Xrotation Zrotation
    JOINT RightToe
    {
     OFFSET 0.000000 -7.465940 17.672538
     CHANNELS 3 Yrotation Xrotation Zrotation
     End Site
     {
      OFFSET 0.000000 -1.736315 7.837145
     }
    }
   }
  }
 }
 JOINT LeftHip
 {
  OFFSET 9.568995 0.193718 0.019767
  CHANNELS 3 Yrotation Xrotation Zrotation
  JOINT LeftKnee
  {
   OFFSET 0.000000 -56.649296 0.015402
   CHANNELS 3 Yrotation Xrotation Zrotation
   JOINT LeftAnkle
   {
    OFFSET 0.000000 -41.365147 0.021264
    CHANNELS 3 Yrotation Xrotation Zrotation
    JOINT LeftToe
    {
     OFFSET 0.000000 -7.465940 17.672538
     CHANNELS 3 Yrotation Xrotation Zrotation
     End Site
     {
      OFFSET 0.000000 -1.736315 7.837145
     }
    }
   }
  }
 }
}
MOTION
Frames: 13
Frame Time: 0.016667
5.961732 105.429300 140.860956 -168.740482 -1.940962 -2.278914 5.497204 4.240599 -1.975714 2.459555 1.861234 -0.927715 2.459564 1.861238 -0.927718 1.847348 1.392228 -0.703236 16.445331 11.005429 -5.127444 33.552531 -12.339507 -16.534068 0.724580 4.989018 9.445421 21.371793 -23.598377 43.730006 43.500301 -40.028681 31.765039 -15.223275 -17.157868 9.667151 1.323308 0.006995 -2.601936 15.517315 -9.870557 -41.758366 -21.870676 -57.873864 -68.943460 22.062380 -17.187378 3.461554 -0.424309 -22.787219 -0.957168 4.821972 41.655772 -5.196932 6.309881 -5.758633 9.049094 0.000000 -0.000000 -0.000000 -10.997192 -4.519890 -4.160221 -7.466501 20.362988 -0.152064 0.569302 -14.151477 3.909228 0.000000 0.000000 0.000000
6.022641 105.443760 140.327872 -167.059165 -1.523229 -2.396374 5.366961 4.204846 -2.001907 2.401809 1.845592 -0.937750 2.401809 1.845592 -0.937750 1.804038 1.380538 -0.710520 16.371844 10.952950 -5.144861 33.437507 -12.449495 -16.558762 0.732420 4.959802 9.341596 21.114381 -23.484417 43.697846 43.612963 -40.205427 31.825990 -15.232305 -17.187279 9.681975 1.346300 0.087980 -2.660668 15.375923 -9.948482 -41.737458 -21.803304 -57.977680 -69.332308 21.962333 -17.205995 3.779325 0.633473 -22.658786 -0.780634 5.081856 38.180079 -5.210583 7.402673 -5.757481 9.650152 0.000000 0.000000 0.000000 -11.562299 -4.652077 -3.971250 -8.068014 20.426671 -0.155240 -0.004148 -14.352291 4.029985 0.000000 0.000000 0.000000
6.076118 105.457094 139.756283 -165.316128 -1.115957 -2.492116 5.215055 4.200128 -2.026290 2.334534 1.843866 -0.947142 2.334527 1.843858 -0.947137 1.753603 1.379300 -0.717346 16.287197 10.892297 -5.156890 33.301979 -12.579295 -16.572351 0.742349 4.981172 9.221477 20.931511 -23.427892 43.619177 43.779532 -40.400413 31.824583 -15.234380 -17.204203 9.689648 1.337081 0.280701 -2.704432 15.269014 -10.107618 -41.795162 -21.809062 -58.091661 -69.632006 21.876621 -17.225671 4.012908 1.018952 -22.343900 -0.443907 6.728857 34.398781 -4.789243 8.840019 -5.949960 10.407321 0.000000 0.000000 0.000000 -12.264752 -4.761886 -3.792892 -8.686304 20.492064 -0.172373 -0.494912 -14.572390 4.151606 0.000000 -0.000000 0.000000
6.119878 105.465630 139.157538 -163.536465 -0.706960 -2.562864 5.052442 4.214533 -2.045392 2.262542 1.850773 -0.954309 2.262538 1.850765 -0.954305 1.699649 1.384563 -0.722530 16.190467 10.828762 -5.167567 33.144187 -12.718343 -16.580179 0.750684 5.033183 9.088380 20.806711 -23.406878 43.495649 43.990512 -40.602604 31.773618 -15.236055 -17.212367 9.693345 1.308542 0.537086 -2.739616 15.173809 -10.305603 -41.911540 -21.845807 -58.208974 -69.874280 21.786878 -17.251143 4.193679 1.109833 -21.911167 -0.088616 9.127844 30.386287 -4.209709 10.499311 -6.248412 11.313540 0.000000 0.000000 0.000000 -13.039501 -4.866862 -3.623908 -9.310136 20.564701 -0.197065 -0.949756 -14.812868 4.283189 0.000000 0.000000 0.000000
6.133008 105.457967 138.542459 -161.804838 -0.328134 -2.592192 4.904503 4.238038 -2.048824 2.196962 1.861856 -0.954740 2.196962 1.861856 -0.954740 1.650490 1.392986 -0.722698 16.061053 10.781040 -5.185748 32.922958 -12.836125 -16.584566 0.763618 5.069735 8.954613 20.751187 -23.372045 43.325816 44.214756 -40.797295 31.681347 -15.258493 -17.204485 9.702868 1.272891 0.767867 -2.794184 15.113622 -10.463803 -42.066584 -21.849764 -58.296016 -70.086028 21.658674 -17.285206 4.364187 1.628859 -21.478128 -0.040800 11.755060 26.546044 -3.487954 12.181899 -6.538544 12.565106 0.000000 0.000000 0.000000 -13.703153 -4.934948 -3.492110 -9.913267 20.641660 -0.221478 -1.488551 -15.078463 4.464015 0.000000 0.000000 -0.000000
6.105886 105.429304 137.930634 -160.178772 0.029705 -2.571000 4.791246 4.260309 -2.034410 2.146621 1.872432 -0.947538 2.146627 1.872446 -0.947543 1.612738 1.401039 -0.717186 15.883259 10.756537 -5.220520 32.609777 -12.920882 -16.594438 0.783071 5.054877 8.820933 20.796818 -23.268689 43.085567 44.446975 -40.999300 31.532301 -15.311127 -17.175800 9.725725 1.232597 0.920867 -2.890509 15.102190 -10.535003 -42.254819 -21.802916 -58.334008 -70.268620 21.461943 -17.332989 4.544400 3.031935 -21.091719 -0.536059 14.857197 22.848183 -2.402523 13.884193 -6.942747 14.450678 0.000000 0.000000 0.000000 -14.131306 -4.979078 -3.413389 -10.502712 20.714561 -0.241410 -2.187852 -15.372422 4.735496 0.000000 -0.000000 0.000000
6.048133 105.384441 137.302475 -158.599812 0.353876 -2.512174 4.692865 4.290226 -2.004452 2.102768 1.886471 -0.933627 2.102777 1.886488 -0.933633 1.579833 1.411688 -0.706668 15.673184 10.748164 -5.261252 32.233154 -12.984127 -16.598415 0.806964 5.024625 8.684418 20.910349 -23.148033 42.799699 44.691511 -41.193034 31.341800 -15.385204 -17.132005 9.754967 1.183733 1.050225 -3.009501 15.125394 -10.564166 -42.478787 -21.731888 -58.342112 -70.411876 21.227739 -17.391067 4.711962 4.845966 -20.647290 -1.329492 18.093218 19.194699 -1.308035 15.537841 -7.553354 16.660870 0.000000 -0.000000 0.000000 -14.448501 -4.985663 -3.372857 -11.071197 20.792080 -0.260346 -2.972745 -15.689357 5.058518 0.000000 0.000000 0.000000
5.967705 105.326381 136.610039 -156.978793 0.579647 -2.436501 4.575049 4.345957 -1.955243 2.050168 1.912204 -0.911206 2.050168 1.912204 -0.911206 1.540339 1.431120 -0.689767 15.458123 10.752564 -5.286910 31.837566 -13.030663 -16.567860 0.835679 5.040071 8.552378 21.008080 -23.122114 42.537029 44.927946 -41.319676 31.168011 -15.474784 -17.081957 9.779123 1.128419 1.225920 -3.117949 15.165255 -10.611927 -42.730354 -21.640339 -58.343026 -70.524318 21.012616 -17.448557 4.846672 6.397433 -20.059016 -2.020342 20.247683 15.982393 -0.731834 16.952584 -7.994800 18.515109 0.000000 0.000000 0.000000 -14.844877 -4.883486 -3.350107 -11.570999 20.896993 -0.281637 -3.735692 -16.021558 5.351739 0.000000 0.000000 0.000000
5.866948 105.253878 135.837103 -155.239989 0.655861 -2.364225 4.405384 4.460566 -1.874344 1.974397 1.964575 -0.874727 1.974370 1.964548 -0.874716 1.483432 1.470593 -0.662323 15.239844 10.755636 -5.298871 31.430784 -13.084365 -16.510520 0.883400 5.184081 8.404701 21.080398 -23.320729 42.288262 45.166507 -41.361268 31.016438 -15.582443 -17.031208 9.796754 1.041710 1.554238 -3.200982 15.228210 -10.777583 -43.061026 -21.575442 -58.358090 -70.555481 20.833205 -17.505041 4.935331 7.797701 -19.267714 -2.594131 20.624966 13.287511 -0.552690 18.179175 -7.735908 20.162763 0.000000 0.000000 0.000000 -15.429651 -4.628587 -3.327186 -11.995663 21.054768 -0.319308 -4.439271 -16.368902 5.617797 0.000000 0.000000 -0.000000
5.743516 105.168178 134.999890 -153.459575 0.632936 -2.284689 4.216307 4.598951 -1.771837 1.889868 2.027772 -0.828607 1.889833 2.027741 -0.828595 1.419959 1.518247 -0.627653 15.016729 10.770363 -5.295701 31.005348 -13.122721 -16.419170 0.936097 5.373933 8.266825 21.142778 -23.615471 42.050788 45.389989 -41.336232 30.887370 -15.706444 -16.975466 9.810266 0.948505 1.927634 -3.268307 15.308471 -10.958707 -43.423566 -21.493694 -58.367228 -70.552632 20.674788 -17.562079 4.991942 8.929477 -18.354476 -3.037048 20.085788 11.078866 -0.502231 19.302748 -7.052279 21.538230 0.000000 -0.000000 0.000000 -16.094665 -4.265167 -3.317105 -12.351727 21.240493 -0.358227 -5.120953 -16.732105 5.854364 -0.000000 0.000000 0.000000
5.598324 105.076019 134.099119 -151.776406 0.598345 -2.170541 4.070443 4.678168 -1.680247 1.824483 2.064402 -0.787187 1.824483 2.064402 -0.787187 1.370876 1.545971 -0.596498 14.811153 10.833087 -5.251906 30.583205 -13.082148 -16.242590 0.952893 5.419182 8.209848 21.147797 -23.736694 41.911031 45.534485 -41.243123 30.834396 -15.834682 -16.908729 9.813580 0.926689 2.094646 -3.329278 15.369583 -10.919043 -43.654547 -21.262064 -58.328068 -70.669829 20.546077 -17.610370 5.038746 8.807394 -17.523433 -2.999428 19.854702 9.708731 -0.668516 20.296097 -6.488715 21.609591 0.000000 0.000000 0.000000 -16.704381 -3.854197 -3.343780 -12.610553 21.401046 -0.358588 -5.784822 -17.105777 5.971340 0.000000 0.000000 0.000000
5.427087 104.969270 133.090252 -150.205175 0.553609 -2.003273 3.989327 4.652024 -1.622492 1.787859 2.053595 -0.760511 1.787891 2.053603 -0.760515 1.343354 1.538000 -0.576344 14.626451 10.978700 -5.120978 30.143113 -12.912572 -15.884286 0.877896 5.186133 8.291613 21.050709 -23.502760 41.941602 45.568372 -41.074000 30.899678 -15.971403 -16.827565 9.804853 1.035472 1.888318 -3.390450 15.285542 -10.481735 -43.592994 -20.738496 -58.223107 -71.014814 20.446194 -17.654652 5.091288 6.473105 -16.805678 -2.146430 20.410037 9.544959 -1.181626 21.334221 -6.073230 19.206106 0.000000 0.000000 0.000000 -17.219765 -3.376303 -3.436643 -12.726901 21.536978 -0.297292 -6.510090 -17.483183 5.944499 -0.000000 -0.000000 0.000000
5.234090 104.856062 132.017827 -148.731360 0.494474 -1.802098 3.951136 4.568590 -1.581312 1.770239 2.016972 -0.741140 1.770261 2.016965 -0.741139 1.330022 1.510589 -0.561646 14.459495 11.169349 -4.947211 29.707777 -12.667623 -15.439272 0.764312 4.801775 8.440219 20.892172 -23.103167 42.085606 45.518643 -40.841977 31.046507 -16.113816 -16.736335 9.786068 1.216580 1.476065 -3.463641 15.183631 -9.836743 -43.380526 -20.078182 -58.061024 -71.461711 20.375512 -17.689072 5.135374 2.927114 -16.156707 -0.902031 21.235901 10.229728 -1.847264 22.198593 -5.685346 15.417867 0.000000 -0.000000 0.000000 -17.682497 -2.849052 -3.563461 -12.745136 21.646423 -0.199086 -7.218760 -17.868818 5.798450 -0.000000 -0.000000 0.000000
